<?xml version="1.0" encoding="utf-8" standalone="no"?>
<!DOCTYPE svg PUBLIC "-//W3C//DTD SVG 1.1//EN"
  "http://www.w3.org/Graphics/SVG/1.1/DTD/svg11.dtd">
<!-- Created with matplotlib (http://matplotlib.org/) -->
<svg height="320pt" version="1.1" viewBox="0 0 320 320" width="320pt" xmlns="http://www.w3.org/2000/svg" xmlns:xlink="http://www.w3.org/1999/xlink">
 <defs>
  <style type="text/css">
*{stroke-linecap:butt;stroke-linejoin:round;stroke-miterlimit:100000;}
  </style>
 </defs>
 <g id="figure_1">
  <g id="patch_1">
   <path d="M 0 320 
L 320 320 
L 320 0 
L 0 0 
z
" style="fill:#ffffff;"/>
  </g>
  <g id="axes_1">
   <g id="patch_2">
    <path d="M 32.23 290.8 
L 295.88 290.8 
L 295.88 18.766875 
L 32.23 18.766875 
z
" style="fill:#ffffff;"/>
   </g>
   <g id="PathCollection_1">
    <defs>
     <path d="M 0 2.236068 
C 0.593012 2.236068 1.161816 2.000462 1.581139 1.581139 
C 2.000462 1.161816 2.236068 0.593012 2.236068 0 
C 2.236068 -0.593012 2.000462 -1.161816 1.581139 -1.581139 
C 1.161816 -2.000462 0.593012 -2.236068 0 -2.236068 
C -0.593012 -2.236068 -1.161816 -2.000462 -1.581139 -1.581139 
C -2.000462 -1.161816 -2.236068 -0.593012 -2.236068 0 
C -2.236068 0.593012 -2.000462 1.161816 -1.581139 1.581139 
C -1.161816 2.000462 -0.593012 2.236068 0 2.236068 
z
" id="mfef8d769ec" style="stroke:#000000;"/>
    </defs>
    <g clip-path="url(#pc10b12a114)">
     <use style="fill:#0000ff;stroke:#000000;" x="119.130590745" xlink:href="#mfef8d769ec" y="228.105432458"/>
     <use style="fill:#0000ff;stroke:#000000;" x="188.097173963" xlink:href="#mfef8d769ec" y="80.3234373021"/>
     <use style="fill:#0000ff;stroke:#000000;" x="189.8949362" xlink:href="#mfef8d769ec" y="99.0121129896"/>
     <use style="fill:#0000ff;stroke:#000000;" x="179.961062119" xlink:href="#mfef8d769ec" y="233.07910476"/>
     <use style="fill:#0000ff;stroke:#000000;" x="217.357100464" xlink:href="#mfef8d769ec" y="85.3243129167"/>
     <use style="fill:#0000ff;stroke:#000000;" x="255.190431604" xlink:href="#mfef8d769ec" y="58.5063806771"/>
     <use style="fill:#0000ff;stroke:#000000;" x="257.020257445" xlink:href="#mfef8d769ec" y="64.8810235729"/>
     <use style="fill:#0000ff;stroke:#000000;" x="249.667311132" xlink:href="#mfef8d769ec" y="83.8961390104"/>
     <use style="fill:#0000ff;stroke:#000000;" x="132.716362364" xlink:href="#mfef8d769ec" y="136.366794938"/>
     <use style="fill:#0000ff;stroke:#000000;" x="254.358165017" xlink:href="#mfef8d769ec" y="66.6401711146"/>
     <use style="fill:#0000ff;stroke:#000000;" x="134.06479743" xlink:href="#mfef8d769ec" y="169.618310583"/>
     <use style="fill:#0000ff;stroke:#000000;" x="171.288348423" xlink:href="#mfef8d769ec" y="129.602237896"/>
     <use style="fill:#0000ff;stroke:#000000;" x="196.742367381" xlink:href="#mfef8d769ec" y="87.4461712917"/>
     <use style="fill:#0000ff;stroke:#000000;" x="216.726131903" xlink:href="#mfef8d769ec" y="196.821623083"/>
     <use style="fill:#0000ff;stroke:#000000;" x="204.253379206" xlink:href="#mfef8d769ec" y="98.6085971875"/>
     <use style="fill:#0000ff;stroke:#000000;" x="210.510436796" xlink:href="#mfef8d769ec" y="95.8202576563"/>
     <use style="fill:#0000ff;stroke:#000000;" x="127.609988386" xlink:href="#mfef8d769ec" y="189.717024635"/>
     <use style="fill:#0000ff;stroke:#000000;" x="87.907593582" xlink:href="#mfef8d769ec" y="202.026523542"/>
     <use style="fill:#0000ff;stroke:#000000;" x="140.674055494" xlink:href="#mfef8d769ec" y="156.03932376"/>
     <use style="fill:#0000ff;stroke:#000000;" x="147.363845186" xlink:href="#mfef8d769ec" y="198.172720938"/>
     <use style="fill:#0000ff;stroke:#000000;" x="257.223346319" xlink:href="#mfef8d769ec" y="61.1451019896"/>
     <use style="fill:#0000ff;stroke:#000000;" x="106.826680478" xlink:href="#mfef8d769ec" y="223.965995073"/>
     <use style="fill:#0000ff;stroke:#000000;" x="140.457079809" xlink:href="#mfef8d769ec" y="197.17073226"/>
     <use style="fill:#0000ff;stroke:#000000;" x="218.511012354" xlink:href="#mfef8d769ec" y="70.6662613646"/>
     <use style="fill:#0000ff;stroke:#000000;" x="181.227769521" xlink:href="#mfef8d769ec" y="96.0197486146"/>
     <use style="fill:#0000ff;stroke:#000000;" x="194.419228726" xlink:href="#mfef8d769ec" y="96.3461883646"/>
     <use style="fill:#0000ff;stroke:#000000;" x="119.580940061" xlink:href="#mfef8d769ec" y="131.424859833"/>
     <use style="fill:#0000ff;stroke:#000000;" x="71.1925608411" xlink:href="#mfef8d769ec" y="216.163178271"/>
     <use style="fill:#0000ff;stroke:#000000;" x="169.34667812" xlink:href="#mfef8d769ec" y="175.992953479"/>
     <use style="fill:#0000ff;stroke:#000000;" x="206.617337538" xlink:href="#mfef8d769ec" y="69.6280016042"/>
     <use style="fill:#0000ff;stroke:#000000;" x="136.710824585" xlink:href="#mfef8d769ec" y="207.702948083"/>
     <use style="fill:#0000ff;stroke:#000000;" x="222.490762362" xlink:href="#mfef8d769ec" y="83.3838099583"/>
     <use style="fill:#0000ff;stroke:#000000;" x="203.754623484" xlink:href="#mfef8d769ec" y="71.9357492813"/>
     <use style="fill:#0000ff;stroke:#000000;" x="239.508891962" xlink:href="#mfef8d769ec" y="80.0378025208"/>
     <use style="fill:#0000ff;stroke:#000000;" x="256.113592356" xlink:href="#mfef8d769ec" y="71.6682500417"/>
     <use style="fill:#0000ff;stroke:#000000;" x="148.111308135" xlink:href="#mfef8d769ec" y="178.400446635"/>
     <use style="fill:#0000ff;stroke:#000000;" x="188.660932764" xlink:href="#mfef8d769ec" y="99.3113494271"/>
     <use style="fill:#0000ff;stroke:#000000;" x="193.686001249" xlink:href="#mfef8d769ec" y="86.8023595625"/>
     <use style="fill:#0000ff;stroke:#000000;" x="185.738112698" xlink:href="#mfef8d769ec" y="103.378244646"/>
     <use style="fill:#0000ff;stroke:#000000;" x="186.731519956" xlink:href="#mfef8d769ec" y="100.929946521"/>
     <use style="fill:#0000ff;stroke:#000000;" x="215.442357014" xlink:href="#mfef8d769ec" y="192.963286594"/>
     <use style="fill:#0000ff;stroke:#000000;" x="103.161369471" xlink:href="#mfef8d769ec" y="163.669852917"/>
     <use style="fill:#0000ff;stroke:#000000;" x="105.995388576" xlink:href="#mfef8d769ec" y="186.760931344"/>
     <use style="fill:#0000ff;stroke:#000000;" x="253.804162059" xlink:href="#mfef8d769ec" y="67.2205084479"/>
     <use style="fill:#0000ff;stroke:#000000;" x="250.521011771" xlink:href="#mfef8d769ec" y="61.1269664479"/>
     <use style="fill:#0000ff;stroke:#000000;" x="218.611850768" xlink:href="#mfef8d769ec" y="169.586573385"/>
     <use style="fill:#0000ff;stroke:#000000;" x="109.272977458" xlink:href="#mfef8d769ec" y="157.28614225"/>
     <use style="fill:#0000ff;stroke:#000000;" x="252.59360162" xlink:href="#mfef8d769ec" y="66.7988571042"/>
     <use style="fill:#0000ff;stroke:#000000;" x="130.92914909" xlink:href="#mfef8d769ec" y="154.683692021"/>
     <use style="fill:#0000ff;stroke:#000000;" x="246.659962888" xlink:href="#mfef8d769ec" y="66.4497479271"/>
     <use style="fill:#0000ff;stroke:#000000;" x="182.935565305" xlink:href="#mfef8d769ec" y="108.27030701"/>
     <use style="fill:#0000ff;stroke:#000000;" x="117.859337806" xlink:href="#mfef8d769ec" y="172.887241969"/>
     <use style="fill:#0000ff;stroke:#000000;" x="99.2720077111" xlink:href="#mfef8d769ec" y="216.498685792"/>
     <use style="fill:#0000ff;stroke:#000000;" x="127.124081069" xlink:href="#mfef8d769ec" y="150.630398458"/>
     <use style="fill:#0000ff;stroke:#000000;" x="168.451285237" xlink:href="#mfef8d769ec" y="108.546874021"/>
     <use style="fill:#0000ff;stroke:#000000;" x="260.644379101" xlink:href="#mfef8d769ec" y="54.0949101667"/>
     <use style="fill:#0000ff;stroke:#000000;" x="230.449826427" xlink:href="#mfef8d769ec" y="94.3104738125"/>
     <use style="fill:#0000ff;stroke:#000000;" x="257.077578032" xlink:href="#mfef8d769ec" y="56.1396924896"/>
     <use style="fill:#0000ff;stroke:#000000;" x="154.348965278" xlink:href="#mfef8d769ec" y="133.483243812"/>
     <use style="fill:#0000ff;stroke:#000000;" x="168.368594337" xlink:href="#mfef8d769ec" y="106.497557812"/>
     <use style="fill:#0000ff;stroke:#000000;" x="213.680247262" xlink:href="#mfef8d769ec" y="105.073917792"/>
     <use style="fill:#0000ff;stroke:#000000;" x="177.273592202" xlink:href="#mfef8d769ec" y="156.846355365"/>
     <use style="fill:#0000ff;stroke:#000000;" x="261.547338783" xlink:href="#mfef8d769ec" y="69.1610114062"/>
     <use style="fill:#0000ff;stroke:#000000;" x="243.759597076" xlink:href="#mfef8d769ec" y="60.7279845313"/>
     <use style="fill:#0000ff;stroke:#000000;" x="248.063203832" xlink:href="#mfef8d769ec" y="61.6302277292"/>
     <use style="fill:#0000ff;stroke:#000000;" x="196.094038343" xlink:href="#mfef8d769ec" y="97.8060994688"/>
     <use style="fill:#0000ff;stroke:#000000;" x="251.978493467" xlink:href="#mfef8d769ec" y="52.3040254271"/>
     <use style="fill:#0000ff;stroke:#000000;" x="177.684532592" xlink:href="#mfef8d769ec" y="97.9511838021"/>
     <use style="fill:#0000ff;stroke:#000000;" x="134.642058328" xlink:href="#mfef8d769ec" y="181.488022604"/>
     <use style="fill:#0000ff;stroke:#000000;" x="137.886298589" xlink:href="#mfef8d769ec" y="121.699675615"/>
     <use style="fill:#0000ff;stroke:#000000;" x="240.359904869" xlink:href="#mfef8d769ec" y="70.3488893854"/>
     <use style="fill:#0000ff;stroke:#000000;" x="267.311353018" xlink:href="#mfef8d769ec" y="75.0414607917"/>
     <use style="fill:#0000ff;stroke:#000000;" x="209.717039006" xlink:href="#mfef8d769ec" y="100.408549698"/>
     <use style="fill:#0000ff;stroke:#000000;" x="137.313391447" xlink:href="#mfef8d769ec" y="233.709314833"/>
     <use style="fill:#0000ff;stroke:#000000;" x="86.5007905418" xlink:href="#mfef8d769ec" y="219.717744438"/>
     <use style="fill:#0000ff;stroke:#000000;" x="215.137824185" xlink:href="#mfef8d769ec" y="91.5266681667"/>
     <use style="fill:#0000ff;stroke:#000000;" x="121.784939891" xlink:href="#mfef8d769ec" y="157.308811677"/>
     <use style="fill:#0000ff;stroke:#000000;" x="109.606173009" xlink:href="#mfef8d769ec" y="207.816295219"/>
     <use style="fill:#0000ff;stroke:#000000;" x="216.365542255" xlink:href="#mfef8d769ec" y="90.2163752813"/>
     <use style="fill:#0000ff;stroke:#000000;" x="121.704903848" xlink:href="#mfef8d769ec" y="179.86942551"/>
     <use style="fill:#0000ff;stroke:#000000;" x="142.614297962" xlink:href="#mfef8d769ec" y="135.904338625"/>
     <use style="fill:#0000ff;stroke:#000000;" x="211.484871266" xlink:href="#mfef8d769ec" y="96.7451702813"/>
     <use style="fill:#0000ff;stroke:#000000;" x="214.88398661" xlink:href="#mfef8d769ec" y="81.3571631771"/>
     <use style="fill:#0000ff;stroke:#000000;" x="163.243749471" xlink:href="#mfef8d769ec" y="123.93941501"/>
     <use style="fill:#0000ff;stroke:#000000;" x="205.037161984" xlink:href="#mfef8d769ec" y="88.8471418854"/>
     <use style="fill:#0000ff;stroke:#000000;" x="171.268752635" xlink:href="#mfef8d769ec" y="104.167140708"/>
     <use style="fill:#0000ff;stroke:#000000;" x="112.710171783" xlink:href="#mfef8d769ec" y="236.021596396"/>
     <use style="fill:#0000ff;stroke:#000000;" x="117.913788766" xlink:href="#mfef8d769ec" y="145.402828573"/>
     <use style="fill:#0000ff;stroke:#000000;" x="180.070930016" xlink:href="#mfef8d769ec" y="186.946820646"/>
     <use style="fill:#0000ff;stroke:#000000;" x="123.450082798" xlink:href="#mfef8d769ec" y="137.622681198"/>
     <use style="fill:#0000ff;stroke:#000000;" x="257.723115607" xlink:href="#mfef8d769ec" y="65.1847938958"/>
     <use style="fill:#0000ff;stroke:#000000;" x="243.250372635" xlink:href="#mfef8d769ec" y="63.1808165417"/>
     <use style="fill:#0000ff;stroke:#000000;" x="158.71392942" xlink:href="#mfef8d769ec" y="96.3008495104"/>
     <use style="fill:#0000ff;stroke:#000000;" x="101.848127266" xlink:href="#mfef8d769ec" y="168.98810051"/>
     <use style="fill:#0000ff;stroke:#000000;" x="146.834662661" xlink:href="#mfef8d769ec" y="214.36322576"/>
     <use style="fill:#0000ff;stroke:#000000;" x="268.930613448" xlink:href="#mfef8d769ec" y="63.217087625"/>
     <use style="fill:#0000ff;stroke:#000000;" x="238.634563666" xlink:href="#mfef8d769ec" y="83.8734695833"/>
     <use style="fill:#0000ff;stroke:#000000;" x="156.66978344" xlink:href="#mfef8d769ec" y="129.92414376"/>
     <use style="fill:#0000ff;stroke:#000000;" x="207.261342731" xlink:href="#mfef8d769ec" y="84.3404597813"/>
     <use style="fill:#0000ff;stroke:#000000;" x="174.638928068" xlink:href="#mfef8d769ec" y="101.501216083"/>
     <use style="fill:#0000ff;stroke:#000000;" x="196.550219219" xlink:href="#mfef8d769ec" y="103.001932156"/>
     <use style="fill:#0000ff;stroke:#000000;" x="164.393892619" xlink:href="#mfef8d769ec" y="101.79138475"/>
     <use style="fill:#0000ff;stroke:#000000;" x="224.451633912" xlink:href="#mfef8d769ec" y="84.2225787604"/>
     <use style="fill:#0000ff;stroke:#000000;" x="235.412593312" xlink:href="#mfef8d769ec" y="72.7291792292"/>
     <use style="fill:#0000ff;stroke:#000000;" x="233.149126949" xlink:href="#mfef8d769ec" y="69.7912214792"/>
     <use style="fill:#0000ff;stroke:#000000;" x="197.8727091" xlink:href="#mfef8d769ec" y="80.2372934792"/>
     <use style="fill:#0000ff;stroke:#000000;" x="210.963998807" xlink:href="#mfef8d769ec" y="98.2186830417"/>
     <use style="fill:#0000ff;stroke:#000000;" x="114.493660989" xlink:href="#mfef8d769ec" y="217.160633063"/>
     <use style="fill:#0000ff;stroke:#000000;" x="138.014729326" xlink:href="#mfef8d769ec" y="129.720118917"/>
     <use style="fill:#0000ff;stroke:#000000;" x="237.486342552" xlink:href="#mfef8d769ec" y="96.8539835312"/>
     <use style="fill:#0000ff;stroke:#000000;" x="140.644946464" xlink:href="#mfef8d769ec" y="140.900680354"/>
     <use style="fill:#0000ff;stroke:#000000;" x="207.173106759" xlink:href="#mfef8d769ec" y="91.2999738958"/>
     <use style="fill:#0000ff;stroke:#000000;" x="114.469432726" xlink:href="#mfef8d769ec" y="233.818128083"/>
     <use style="fill:#0000ff;stroke:#000000;" x="267.178961762" xlink:href="#mfef8d769ec" y="64.2326779583"/>
     <use style="fill:#0000ff;stroke:#000000;" x="231.842726458" xlink:href="#mfef8d769ec" y="88.3030756354"/>
     <use style="fill:#0000ff;stroke:#000000;" x="244.124191427" xlink:href="#mfef8d769ec" y="73.5090075208"/>
     <use style="fill:#0000ff;stroke:#000000;" x="117.184809562" xlink:href="#mfef8d769ec" y="208.469174719"/>
     <use style="fill:#0000ff;stroke:#000000;" x="205.102115041" xlink:href="#mfef8d769ec" y="203.119189927"/>
     <use style="fill:#0000ff;stroke:#000000;" x="248.397514299" xlink:href="#mfef8d769ec" y="59.8393429896"/>
     <use style="fill:#0000ff;stroke:#000000;" x="172.73795626" xlink:href="#mfef8d769ec" y="98.581393875"/>
     <use style="fill:#0000ff;stroke:#000000;" x="156.617716047" xlink:href="#mfef8d769ec" y="161.330368042"/>
     <use style="fill:#0000ff;stroke:#000000;" x="177.633993061" xlink:href="#mfef8d769ec" y="247.21575949"/>
     <use style="fill:#0000ff;stroke:#000000;" x="254.547038125" xlink:href="#mfef8d769ec" y="60.0977744583"/>
     <use style="fill:#0000ff;stroke:#000000;" x="258.450980639" xlink:href="#mfef8d769ec" y="56.3935900729"/>
     <use style="fill:#0000ff;stroke:#000000;" x="174.745881225" xlink:href="#mfef8d769ec" y="90.6606960521"/>
     <use style="fill:#0000ff;stroke:#000000;" x="248.261152096" xlink:href="#mfef8d769ec" y="71.3599458333"/>
     <use style="fill:#0000ff;stroke:#000000;" x="124.00979451" xlink:href="#mfef8d769ec" y="188.710502073"/>
     <use style="fill:#0000ff;stroke:#000000;" x="196.804324942" xlink:href="#mfef8d769ec" y="106.651709917"/>
     <use style="fill:#0000ff;stroke:#000000;" x="115.362880646" xlink:href="#mfef8d769ec" y="161.946976458"/>
     <use style="fill:#0000ff;stroke:#000000;" x="230.448904075" xlink:href="#mfef8d769ec" y="110.265216594"/>
     <use style="fill:#0000ff;stroke:#000000;" x="194.886692102" xlink:href="#mfef8d769ec" y="91.6581508437"/>
     <use style="fill:#0000ff;stroke:#000000;" x="201.605955195" xlink:href="#mfef8d769ec" y="101.387868948"/>
     <use style="fill:#0000ff;stroke:#000000;" x="122.206733671" xlink:href="#mfef8d769ec" y="193.131040354"/>
     <use style="fill:#0000ff;stroke:#000000;" x="253.799767625" xlink:href="#mfef8d769ec" y="66.7127132812"/>
     <use style="fill:#0000ff;stroke:#000000;" x="263.625048742" xlink:href="#mfef8d769ec" y="72.0762997292"/>
     <use style="fill:#0000ff;stroke:#000000;" x="210.261882758" xlink:href="#mfef8d769ec" y="80.5002588333"/>
     <use style="fill:#0000ff;stroke:#000000;" x="213.05053555" xlink:href="#mfef8d769ec" y="92.4561146771"/>
     <use style="fill:#0000ff;stroke:#000000;" x="154.183093216" xlink:href="#mfef8d769ec" y="90.1801041979"/>
     <use style="fill:#0000ff;stroke:#000000;" x="162.365495298" xlink:href="#mfef8d769ec" y="93.9296274375"/>
     <use style="fill:#0000ff;stroke:#000000;" x="151.582726871" xlink:href="#mfef8d769ec" y="142.551014646"/>
     <use style="fill:#0000ff;stroke:#000000;" x="129.27234493" xlink:href="#mfef8d769ec" y="234.652363"/>
     <use style="fill:#0000ff;stroke:#000000;" x="91.2725857755" xlink:href="#mfef8d769ec" y="229.651487385"/>
    </g>
   </g>
   <g id="patch_3">
    <path d="M 295.88 290.8 
L 295.88 18.766875 
" style="fill:none;stroke:#000000;stroke-linecap:square;stroke-linejoin:miter;"/>
   </g>
   <g id="patch_4">
    <path d="M 32.23 290.8 
L 32.23 18.766875 
" style="fill:none;stroke:#000000;stroke-linecap:square;stroke-linejoin:miter;"/>
   </g>
   <g id="patch_5">
    <path d="M 32.23 18.766875 
L 295.88 18.766875 
" style="fill:none;stroke:#000000;stroke-linecap:square;stroke-linejoin:miter;"/>
   </g>
   <g id="patch_6">
    <path d="M 32.23 290.8 
L 295.88 290.8 
" style="fill:none;stroke:#000000;stroke-linecap:square;stroke-linejoin:miter;"/>
   </g>
   <g id="matplotlib.axis_1">
    <g id="xtick_1">
     <g id="line2d_1">
      <defs>
       <path d="M 0 0 
L 0 -4 
" id="me905e37f7c" style="stroke:#000000;stroke-width:0.5;"/>
      </defs>
      <g>
       <use style="stroke:#000000;stroke-width:0.5;" x="32.23" xlink:href="#me905e37f7c" y="290.8"/>
      </g>
     </g>
     <g id="line2d_2">
      <defs>
       <path d="M 0 0 
L 0 4 
" id="m953cf8be0a" style="stroke:#000000;stroke-width:0.5;"/>
      </defs>
      <g>
       <use style="stroke:#000000;stroke-width:0.5;" x="32.23" xlink:href="#m953cf8be0a" y="18.766875"/>
      </g>
     </g>
     <g id="text_1">
      <!-- $\mathdefault{10^{2}}$ -->
      <defs>
       <path d="M 12.40625 8.296875 
L 28.515625 8.296875 
L 28.515625 63.921875 
L 10.984375 60.40625 
L 10.984375 69.390625 
L 28.421875 72.90625 
L 38.28125 72.90625 
L 38.28125 8.296875 
L 54.390625 8.296875 
L 54.390625 0 
L 12.40625 0 
z
" id="BitstreamVeraSans-Roman-31"/>
       <path d="M 19.1875 8.296875 
L 53.609375 8.296875 
L 53.609375 0 
L 7.328125 0 
L 7.328125 8.296875 
Q 12.9375 14.109375 22.625 23.890625 
Q 32.328125 33.6875 34.8125 36.53125 
Q 39.546875 41.84375 41.421875 45.53125 
Q 43.3125 49.21875 43.3125 52.78125 
Q 43.3125 58.59375 39.234375 62.25 
Q 35.15625 65.921875 28.609375 65.921875 
Q 23.96875 65.921875 18.8125 64.3125 
Q 13.671875 62.703125 7.8125 59.421875 
L 7.8125 69.390625 
Q 13.765625 71.78125 18.9375 73 
Q 24.125 74.21875 28.421875 74.21875 
Q 39.75 74.21875 46.484375 68.546875 
Q 53.21875 62.890625 53.21875 53.421875 
Q 53.21875 48.921875 51.53125 44.890625 
Q 49.859375 40.875 45.40625 35.40625 
Q 44.1875 33.984375 37.640625 27.21875 
Q 31.109375 20.453125 19.1875 8.296875 
" id="BitstreamVeraSans-Roman-32"/>
       <path d="M 31.78125 66.40625 
Q 24.171875 66.40625 20.328125 58.90625 
Q 16.5 51.421875 16.5 36.375 
Q 16.5 21.390625 20.328125 13.890625 
Q 24.171875 6.390625 31.78125 6.390625 
Q 39.453125 6.390625 43.28125 13.890625 
Q 47.125 21.390625 47.125 36.375 
Q 47.125 51.421875 43.28125 58.90625 
Q 39.453125 66.40625 31.78125 66.40625 
M 31.78125 74.21875 
Q 44.046875 74.21875 50.515625 64.515625 
Q 56.984375 54.828125 56.984375 36.375 
Q 56.984375 17.96875 50.515625 8.265625 
Q 44.046875 -1.421875 31.78125 -1.421875 
Q 19.53125 -1.421875 13.0625 8.265625 
Q 6.59375 17.96875 6.59375 36.375 
Q 6.59375 54.828125 13.0625 64.515625 
Q 19.53125 74.21875 31.78125 74.21875 
" id="BitstreamVeraSans-Roman-30"/>
      </defs>
      <g transform="translate(21.07 304.544375)scale(0.12 -0.12)">
       <use transform="translate(0.0 0.796875)" xlink:href="#BitstreamVeraSans-Roman-31"/>
       <use transform="translate(63.623046875 0.796875)" xlink:href="#BitstreamVeraSans-Roman-30"/>
       <use transform="translate(132.75859375 48.046875)scale(0.7)" xlink:href="#BitstreamVeraSans-Roman-32"/>
      </g>
     </g>
    </g>
    <g id="xtick_2">
     <g id="line2d_3">
      <g>
       <use style="stroke:#000000;stroke-width:0.5;" x="120.113333333" xlink:href="#me905e37f7c" y="290.8"/>
      </g>
     </g>
     <g id="line2d_4">
      <g>
       <use style="stroke:#000000;stroke-width:0.5;" x="120.113333333" xlink:href="#m953cf8be0a" y="18.766875"/>
      </g>
     </g>
     <g id="text_2">
      <!-- $\mathdefault{10^{3}}$ -->
      <defs>
       <path d="M 40.578125 39.3125 
Q 47.65625 37.796875 51.625 33 
Q 55.609375 28.21875 55.609375 21.1875 
Q 55.609375 10.40625 48.1875 4.484375 
Q 40.765625 -1.421875 27.09375 -1.421875 
Q 22.515625 -1.421875 17.65625 -0.515625 
Q 12.796875 0.390625 7.625 2.203125 
L 7.625 11.71875 
Q 11.71875 9.328125 16.59375 8.109375 
Q 21.484375 6.890625 26.8125 6.890625 
Q 36.078125 6.890625 40.9375 10.546875 
Q 45.796875 14.203125 45.796875 21.1875 
Q 45.796875 27.640625 41.28125 31.265625 
Q 36.765625 34.90625 28.71875 34.90625 
L 20.21875 34.90625 
L 20.21875 43.015625 
L 29.109375 43.015625 
Q 36.375 43.015625 40.234375 45.921875 
Q 44.09375 48.828125 44.09375 54.296875 
Q 44.09375 59.90625 40.109375 62.90625 
Q 36.140625 65.921875 28.71875 65.921875 
Q 24.65625 65.921875 20.015625 65.03125 
Q 15.375 64.15625 9.8125 62.3125 
L 9.8125 71.09375 
Q 15.4375 72.65625 20.34375 73.4375 
Q 25.25 74.21875 29.59375 74.21875 
Q 40.828125 74.21875 47.359375 69.109375 
Q 53.90625 64.015625 53.90625 55.328125 
Q 53.90625 49.265625 50.4375 45.09375 
Q 46.96875 40.921875 40.578125 39.3125 
" id="BitstreamVeraSans-Roman-33"/>
      </defs>
      <g transform="translate(108.953333333 304.544375)scale(0.12 -0.12)">
       <use transform="translate(0.0 0.796875)" xlink:href="#BitstreamVeraSans-Roman-31"/>
       <use transform="translate(63.623046875 0.796875)" xlink:href="#BitstreamVeraSans-Roman-30"/>
       <use transform="translate(132.75859375 48.046875)scale(0.7)" xlink:href="#BitstreamVeraSans-Roman-33"/>
      </g>
     </g>
    </g>
    <g id="xtick_3">
     <g id="line2d_5">
      <g>
       <use style="stroke:#000000;stroke-width:0.5;" x="207.996666667" xlink:href="#me905e37f7c" y="290.8"/>
      </g>
     </g>
     <g id="line2d_6">
      <g>
       <use style="stroke:#000000;stroke-width:0.5;" x="207.996666667" xlink:href="#m953cf8be0a" y="18.766875"/>
      </g>
     </g>
     <g id="text_3">
      <!-- $\mathdefault{10^{4}}$ -->
      <defs>
       <path d="M 37.796875 64.3125 
L 12.890625 25.390625 
L 37.796875 25.390625 
z
M 35.203125 72.90625 
L 47.609375 72.90625 
L 47.609375 25.390625 
L 58.015625 25.390625 
L 58.015625 17.1875 
L 47.609375 17.1875 
L 47.609375 0 
L 37.796875 0 
L 37.796875 17.1875 
L 4.890625 17.1875 
L 4.890625 26.703125 
z
" id="BitstreamVeraSans-Roman-34"/>
      </defs>
      <g transform="translate(196.836666667 304.424375)scale(0.12 -0.12)">
       <use transform="translate(0.0 0.7156250000000028)" xlink:href="#BitstreamVeraSans-Roman-31"/>
       <use transform="translate(63.623046875 0.7156250000000028)" xlink:href="#BitstreamVeraSans-Roman-30"/>
       <use transform="translate(132.75859375 47.965625)scale(0.7)" xlink:href="#BitstreamVeraSans-Roman-34"/>
      </g>
     </g>
    </g>
    <g id="xtick_4">
     <g id="line2d_7">
      <g>
       <use style="stroke:#000000;stroke-width:0.5;" x="295.88" xlink:href="#me905e37f7c" y="290.8"/>
      </g>
     </g>
     <g id="line2d_8">
      <g>
       <use style="stroke:#000000;stroke-width:0.5;" x="295.88" xlink:href="#m953cf8be0a" y="18.766875"/>
      </g>
     </g>
     <g id="text_4">
      <!-- $\mathdefault{10^{5}}$ -->
      <defs>
       <path d="M 10.796875 72.90625 
L 49.515625 72.90625 
L 49.515625 64.59375 
L 19.828125 64.59375 
L 19.828125 46.734375 
Q 21.96875 47.46875 24.109375 47.828125 
Q 26.265625 48.1875 28.421875 48.1875 
Q 40.625 48.1875 47.75 41.5 
Q 54.890625 34.8125 54.890625 23.390625 
Q 54.890625 11.625 47.5625 5.09375 
Q 40.234375 -1.421875 26.90625 -1.421875 
Q 22.3125 -1.421875 17.546875 -0.640625 
Q 12.796875 0.140625 7.71875 1.703125 
L 7.71875 11.625 
Q 12.109375 9.234375 16.796875 8.0625 
Q 21.484375 6.890625 26.703125 6.890625 
Q 35.15625 6.890625 40.078125 11.328125 
Q 45.015625 15.765625 45.015625 23.390625 
Q 45.015625 31 40.078125 35.4375 
Q 35.15625 39.890625 26.703125 39.890625 
Q 22.75 39.890625 18.8125 39.015625 
Q 14.890625 38.140625 10.796875 36.28125 
z
" id="BitstreamVeraSans-Roman-35"/>
      </defs>
      <g transform="translate(284.72 304.424375)scale(0.12 -0.12)">
       <use transform="translate(0.0 0.7156250000000028)" xlink:href="#BitstreamVeraSans-Roman-31"/>
       <use transform="translate(63.623046875 0.7156250000000028)" xlink:href="#BitstreamVeraSans-Roman-30"/>
       <use transform="translate(132.75859375 47.965625)scale(0.7)" xlink:href="#BitstreamVeraSans-Roman-35"/>
      </g>
     </g>
    </g>
    <g id="xtick_5">
     <g id="line2d_9">
      <defs>
       <path d="M 0 0 
L 0 -2 
" id="m51aff8fc3d" style="stroke:#000000;stroke-width:0.5;"/>
      </defs>
      <g>
       <use style="stroke:#000000;stroke-width:0.5;" x="58.6855194523" xlink:href="#m51aff8fc3d" y="290.8"/>
      </g>
     </g>
     <g id="line2d_10">
      <defs>
       <path d="M 0 0 
L 0 2 
" id="mdf5130fc92" style="stroke:#000000;stroke-width:0.5;"/>
      </defs>
      <g>
       <use style="stroke:#000000;stroke-width:0.5;" x="58.6855194523" xlink:href="#mdf5130fc92" y="18.766875"/>
      </g>
     </g>
    </g>
    <g id="xtick_6">
     <g id="line2d_11">
      <g>
       <use style="stroke:#000000;stroke-width:0.5;" x="74.1610062689" xlink:href="#m51aff8fc3d" y="290.8"/>
      </g>
     </g>
     <g id="line2d_12">
      <g>
       <use style="stroke:#000000;stroke-width:0.5;" x="74.1610062689" xlink:href="#mdf5130fc92" y="18.766875"/>
      </g>
     </g>
    </g>
    <g id="xtick_7">
     <g id="line2d_13">
      <g>
       <use style="stroke:#000000;stroke-width:0.5;" x="85.1410389045" xlink:href="#m51aff8fc3d" y="290.8"/>
      </g>
     </g>
     <g id="line2d_14">
      <g>
       <use style="stroke:#000000;stroke-width:0.5;" x="85.1410389045" xlink:href="#mdf5130fc92" y="18.766875"/>
      </g>
     </g>
    </g>
    <g id="xtick_8">
     <g id="line2d_15">
      <g>
       <use style="stroke:#000000;stroke-width:0.5;" x="93.6578138811" xlink:href="#m51aff8fc3d" y="290.8"/>
      </g>
     </g>
     <g id="line2d_16">
      <g>
       <use style="stroke:#000000;stroke-width:0.5;" x="93.6578138811" xlink:href="#mdf5130fc92" y="18.766875"/>
      </g>
     </g>
    </g>
    <g id="xtick_9">
     <g id="line2d_17">
      <g>
       <use style="stroke:#000000;stroke-width:0.5;" x="100.616525721" xlink:href="#m51aff8fc3d" y="290.8"/>
      </g>
     </g>
     <g id="line2d_18">
      <g>
       <use style="stroke:#000000;stroke-width:0.5;" x="100.616525721" xlink:href="#mdf5130fc92" y="18.766875"/>
      </g>
     </g>
    </g>
    <g id="xtick_10">
     <g id="line2d_19">
      <g>
       <use style="stroke:#000000;stroke-width:0.5;" x="106.50003275" xlink:href="#m51aff8fc3d" y="290.8"/>
      </g>
     </g>
     <g id="line2d_20">
      <g>
       <use style="stroke:#000000;stroke-width:0.5;" x="106.50003275" xlink:href="#mdf5130fc92" y="18.766875"/>
      </g>
     </g>
    </g>
    <g id="xtick_11">
     <g id="line2d_21">
      <g>
       <use style="stroke:#000000;stroke-width:0.5;" x="111.596558357" xlink:href="#m51aff8fc3d" y="290.8"/>
      </g>
     </g>
     <g id="line2d_22">
      <g>
       <use style="stroke:#000000;stroke-width:0.5;" x="111.596558357" xlink:href="#mdf5130fc92" y="18.766875"/>
      </g>
     </g>
    </g>
    <g id="xtick_12">
     <g id="line2d_23">
      <g>
       <use style="stroke:#000000;stroke-width:0.5;" x="116.092012538" xlink:href="#m51aff8fc3d" y="290.8"/>
      </g>
     </g>
     <g id="line2d_24">
      <g>
       <use style="stroke:#000000;stroke-width:0.5;" x="116.092012538" xlink:href="#mdf5130fc92" y="18.766875"/>
      </g>
     </g>
    </g>
    <g id="xtick_13">
     <g id="line2d_25">
      <g>
       <use style="stroke:#000000;stroke-width:0.5;" x="146.568852786" xlink:href="#m51aff8fc3d" y="290.8"/>
      </g>
     </g>
     <g id="line2d_26">
      <g>
       <use style="stroke:#000000;stroke-width:0.5;" x="146.568852786" xlink:href="#mdf5130fc92" y="18.766875"/>
      </g>
     </g>
    </g>
    <g id="xtick_14">
     <g id="line2d_27">
      <g>
       <use style="stroke:#000000;stroke-width:0.5;" x="162.044339602" xlink:href="#m51aff8fc3d" y="290.8"/>
      </g>
     </g>
     <g id="line2d_28">
      <g>
       <use style="stroke:#000000;stroke-width:0.5;" x="162.044339602" xlink:href="#mdf5130fc92" y="18.766875"/>
      </g>
     </g>
    </g>
    <g id="xtick_15">
     <g id="line2d_29">
      <g>
       <use style="stroke:#000000;stroke-width:0.5;" x="173.024372238" xlink:href="#m51aff8fc3d" y="290.8"/>
      </g>
     </g>
     <g id="line2d_30">
      <g>
       <use style="stroke:#000000;stroke-width:0.5;" x="173.024372238" xlink:href="#mdf5130fc92" y="18.766875"/>
      </g>
     </g>
    </g>
    <g id="xtick_16">
     <g id="line2d_31">
      <g>
       <use style="stroke:#000000;stroke-width:0.5;" x="181.541147214" xlink:href="#m51aff8fc3d" y="290.8"/>
      </g>
     </g>
     <g id="line2d_32">
      <g>
       <use style="stroke:#000000;stroke-width:0.5;" x="181.541147214" xlink:href="#mdf5130fc92" y="18.766875"/>
      </g>
     </g>
    </g>
    <g id="xtick_17">
     <g id="line2d_33">
      <g>
       <use style="stroke:#000000;stroke-width:0.5;" x="188.499859055" xlink:href="#m51aff8fc3d" y="290.8"/>
      </g>
     </g>
     <g id="line2d_34">
      <g>
       <use style="stroke:#000000;stroke-width:0.5;" x="188.499859055" xlink:href="#mdf5130fc92" y="18.766875"/>
      </g>
     </g>
    </g>
    <g id="xtick_18">
     <g id="line2d_35">
      <g>
       <use style="stroke:#000000;stroke-width:0.5;" x="194.383366083" xlink:href="#m51aff8fc3d" y="290.8"/>
      </g>
     </g>
     <g id="line2d_36">
      <g>
       <use style="stroke:#000000;stroke-width:0.5;" x="194.383366083" xlink:href="#mdf5130fc92" y="18.766875"/>
      </g>
     </g>
    </g>
    <g id="xtick_19">
     <g id="line2d_37">
      <g>
       <use style="stroke:#000000;stroke-width:0.5;" x="199.47989169" xlink:href="#m51aff8fc3d" y="290.8"/>
      </g>
     </g>
     <g id="line2d_38">
      <g>
       <use style="stroke:#000000;stroke-width:0.5;" x="199.47989169" xlink:href="#mdf5130fc92" y="18.766875"/>
      </g>
     </g>
    </g>
    <g id="xtick_20">
     <g id="line2d_39">
      <g>
       <use style="stroke:#000000;stroke-width:0.5;" x="203.975345871" xlink:href="#m51aff8fc3d" y="290.8"/>
      </g>
     </g>
     <g id="line2d_40">
      <g>
       <use style="stroke:#000000;stroke-width:0.5;" x="203.975345871" xlink:href="#mdf5130fc92" y="18.766875"/>
      </g>
     </g>
    </g>
    <g id="xtick_21">
     <g id="line2d_41">
      <g>
       <use style="stroke:#000000;stroke-width:0.5;" x="234.452186119" xlink:href="#m51aff8fc3d" y="290.8"/>
      </g>
     </g>
     <g id="line2d_42">
      <g>
       <use style="stroke:#000000;stroke-width:0.5;" x="234.452186119" xlink:href="#mdf5130fc92" y="18.766875"/>
      </g>
     </g>
    </g>
    <g id="xtick_22">
     <g id="line2d_43">
      <g>
       <use style="stroke:#000000;stroke-width:0.5;" x="249.927672936" xlink:href="#m51aff8fc3d" y="290.8"/>
      </g>
     </g>
     <g id="line2d_44">
      <g>
       <use style="stroke:#000000;stroke-width:0.5;" x="249.927672936" xlink:href="#mdf5130fc92" y="18.766875"/>
      </g>
     </g>
    </g>
    <g id="xtick_23">
     <g id="line2d_45">
      <g>
       <use style="stroke:#000000;stroke-width:0.5;" x="260.907705571" xlink:href="#m51aff8fc3d" y="290.8"/>
      </g>
     </g>
     <g id="line2d_46">
      <g>
       <use style="stroke:#000000;stroke-width:0.5;" x="260.907705571" xlink:href="#mdf5130fc92" y="18.766875"/>
      </g>
     </g>
    </g>
    <g id="xtick_24">
     <g id="line2d_47">
      <g>
       <use style="stroke:#000000;stroke-width:0.5;" x="269.424480548" xlink:href="#m51aff8fc3d" y="290.8"/>
      </g>
     </g>
     <g id="line2d_48">
      <g>
       <use style="stroke:#000000;stroke-width:0.5;" x="269.424480548" xlink:href="#mdf5130fc92" y="18.766875"/>
      </g>
     </g>
    </g>
    <g id="xtick_25">
     <g id="line2d_49">
      <g>
       <use style="stroke:#000000;stroke-width:0.5;" x="276.383192388" xlink:href="#m51aff8fc3d" y="290.8"/>
      </g>
     </g>
     <g id="line2d_50">
      <g>
       <use style="stroke:#000000;stroke-width:0.5;" x="276.383192388" xlink:href="#mdf5130fc92" y="18.766875"/>
      </g>
     </g>
    </g>
    <g id="xtick_26">
     <g id="line2d_51">
      <g>
       <use style="stroke:#000000;stroke-width:0.5;" x="282.266699417" xlink:href="#m51aff8fc3d" y="290.8"/>
      </g>
     </g>
     <g id="line2d_52">
      <g>
       <use style="stroke:#000000;stroke-width:0.5;" x="282.266699417" xlink:href="#mdf5130fc92" y="18.766875"/>
      </g>
     </g>
    </g>
    <g id="xtick_27">
     <g id="line2d_53">
      <g>
       <use style="stroke:#000000;stroke-width:0.5;" x="287.363225023" xlink:href="#m51aff8fc3d" y="290.8"/>
      </g>
     </g>
     <g id="line2d_54">
      <g>
       <use style="stroke:#000000;stroke-width:0.5;" x="287.363225023" xlink:href="#mdf5130fc92" y="18.766875"/>
      </g>
     </g>
    </g>
    <g id="xtick_28">
     <g id="line2d_55">
      <g>
       <use style="stroke:#000000;stroke-width:0.5;" x="291.858679205" xlink:href="#m51aff8fc3d" y="290.8"/>
      </g>
     </g>
     <g id="line2d_56">
      <g>
       <use style="stroke:#000000;stroke-width:0.5;" x="291.858679205" xlink:href="#mdf5130fc92" y="18.766875"/>
      </g>
     </g>
    </g>
   </g>
   <g id="matplotlib.axis_2">
    <g id="ytick_1">
     <g id="line2d_57">
      <defs>
       <path d="M 0 0 
L 4 0 
" id="mb01bede1b4" style="stroke:#000000;stroke-width:0.5;"/>
      </defs>
      <g>
       <use style="stroke:#000000;stroke-width:0.5;" x="32.23" xlink:href="#mb01bede1b4" y="290.8"/>
      </g>
     </g>
     <g id="line2d_58">
      <defs>
       <path d="M 0 0 
L -4 0 
" id="m632fd4a13d" style="stroke:#000000;stroke-width:0.5;"/>
      </defs>
      <g>
       <use style="stroke:#000000;stroke-width:0.5;" x="295.88" xlink:href="#m632fd4a13d" y="290.8"/>
      </g>
     </g>
     <g id="text_5">
      <!-- 30 -->
      <g transform="translate(12.96 294.11125)scale(0.12 -0.12)">
       <use xlink:href="#BitstreamVeraSans-Roman-33"/>
       <use x="63.623046875" xlink:href="#BitstreamVeraSans-Roman-30"/>
      </g>
     </g>
    </g>
    <g id="ytick_2">
     <g id="line2d_59">
      <g>
       <use style="stroke:#000000;stroke-width:0.5;" x="32.23" xlink:href="#mb01bede1b4" y="245.461145833"/>
      </g>
     </g>
     <g id="line2d_60">
      <g>
       <use style="stroke:#000000;stroke-width:0.5;" x="295.88" xlink:href="#m632fd4a13d" y="245.461145833"/>
      </g>
     </g>
     <g id="text_6">
      <!-- 40 -->
      <g transform="translate(12.96 248.772395833)scale(0.12 -0.12)">
       <use xlink:href="#BitstreamVeraSans-Roman-34"/>
       <use x="63.623046875" xlink:href="#BitstreamVeraSans-Roman-30"/>
      </g>
     </g>
    </g>
    <g id="ytick_3">
     <g id="line2d_61">
      <g>
       <use style="stroke:#000000;stroke-width:0.5;" x="32.23" xlink:href="#mb01bede1b4" y="200.122291667"/>
      </g>
     </g>
     <g id="line2d_62">
      <g>
       <use style="stroke:#000000;stroke-width:0.5;" x="295.88" xlink:href="#m632fd4a13d" y="200.122291667"/>
      </g>
     </g>
     <g id="text_7">
      <!-- 50 -->
      <g transform="translate(12.96 203.433541667)scale(0.12 -0.12)">
       <use xlink:href="#BitstreamVeraSans-Roman-35"/>
       <use x="63.623046875" xlink:href="#BitstreamVeraSans-Roman-30"/>
      </g>
     </g>
    </g>
    <g id="ytick_4">
     <g id="line2d_63">
      <g>
       <use style="stroke:#000000;stroke-width:0.5;" x="32.23" xlink:href="#mb01bede1b4" y="154.7834375"/>
      </g>
     </g>
     <g id="line2d_64">
      <g>
       <use style="stroke:#000000;stroke-width:0.5;" x="295.88" xlink:href="#m632fd4a13d" y="154.7834375"/>
      </g>
     </g>
     <g id="text_8">
      <!-- 60 -->
      <defs>
       <path d="M 33.015625 40.375 
Q 26.375 40.375 22.484375 35.828125 
Q 18.609375 31.296875 18.609375 23.390625 
Q 18.609375 15.53125 22.484375 10.953125 
Q 26.375 6.390625 33.015625 6.390625 
Q 39.65625 6.390625 43.53125 10.953125 
Q 47.40625 15.53125 47.40625 23.390625 
Q 47.40625 31.296875 43.53125 35.828125 
Q 39.65625 40.375 33.015625 40.375 
M 52.59375 71.296875 
L 52.59375 62.3125 
Q 48.875 64.0625 45.09375 64.984375 
Q 41.3125 65.921875 37.59375 65.921875 
Q 27.828125 65.921875 22.671875 59.328125 
Q 17.53125 52.734375 16.796875 39.40625 
Q 19.671875 43.65625 24.015625 45.921875 
Q 28.375 48.1875 33.59375 48.1875 
Q 44.578125 48.1875 50.953125 41.515625 
Q 57.328125 34.859375 57.328125 23.390625 
Q 57.328125 12.15625 50.6875 5.359375 
Q 44.046875 -1.421875 33.015625 -1.421875 
Q 20.359375 -1.421875 13.671875 8.265625 
Q 6.984375 17.96875 6.984375 36.375 
Q 6.984375 53.65625 15.1875 63.9375 
Q 23.390625 74.21875 37.203125 74.21875 
Q 40.921875 74.21875 44.703125 73.484375 
Q 48.484375 72.75 52.59375 71.296875 
" id="BitstreamVeraSans-Roman-36"/>
      </defs>
      <g transform="translate(12.96 158.0946875)scale(0.12 -0.12)">
       <use xlink:href="#BitstreamVeraSans-Roman-36"/>
       <use x="63.623046875" xlink:href="#BitstreamVeraSans-Roman-30"/>
      </g>
     </g>
    </g>
    <g id="ytick_5">
     <g id="line2d_65">
      <g>
       <use style="stroke:#000000;stroke-width:0.5;" x="32.23" xlink:href="#mb01bede1b4" y="109.444583333"/>
      </g>
     </g>
     <g id="line2d_66">
      <g>
       <use style="stroke:#000000;stroke-width:0.5;" x="295.88" xlink:href="#m632fd4a13d" y="109.444583333"/>
      </g>
     </g>
     <g id="text_9">
      <!-- 70 -->
      <defs>
       <path d="M 8.203125 72.90625 
L 55.078125 72.90625 
L 55.078125 68.703125 
L 28.609375 0 
L 18.3125 0 
L 43.21875 64.59375 
L 8.203125 64.59375 
z
" id="BitstreamVeraSans-Roman-37"/>
      </defs>
      <g transform="translate(12.96 112.755833333)scale(0.12 -0.12)">
       <use xlink:href="#BitstreamVeraSans-Roman-37"/>
       <use x="63.623046875" xlink:href="#BitstreamVeraSans-Roman-30"/>
      </g>
     </g>
    </g>
    <g id="ytick_6">
     <g id="line2d_67">
      <g>
       <use style="stroke:#000000;stroke-width:0.5;" x="32.23" xlink:href="#mb01bede1b4" y="64.1057291667"/>
      </g>
     </g>
     <g id="line2d_68">
      <g>
       <use style="stroke:#000000;stroke-width:0.5;" x="295.88" xlink:href="#m632fd4a13d" y="64.1057291667"/>
      </g>
     </g>
     <g id="text_10">
      <!-- 80 -->
      <defs>
       <path d="M 31.78125 34.625 
Q 24.75 34.625 20.71875 30.859375 
Q 16.703125 27.09375 16.703125 20.515625 
Q 16.703125 13.921875 20.71875 10.15625 
Q 24.75 6.390625 31.78125 6.390625 
Q 38.8125 6.390625 42.859375 10.171875 
Q 46.921875 13.96875 46.921875 20.515625 
Q 46.921875 27.09375 42.890625 30.859375 
Q 38.875 34.625 31.78125 34.625 
M 21.921875 38.8125 
Q 15.578125 40.375 12.03125 44.71875 
Q 8.5 49.078125 8.5 55.328125 
Q 8.5 64.0625 14.71875 69.140625 
Q 20.953125 74.21875 31.78125 74.21875 
Q 42.671875 74.21875 48.875 69.140625 
Q 55.078125 64.0625 55.078125 55.328125 
Q 55.078125 49.078125 51.53125 44.71875 
Q 48 40.375 41.703125 38.8125 
Q 48.828125 37.15625 52.796875 32.3125 
Q 56.78125 27.484375 56.78125 20.515625 
Q 56.78125 9.90625 50.3125 4.234375 
Q 43.84375 -1.421875 31.78125 -1.421875 
Q 19.734375 -1.421875 13.25 4.234375 
Q 6.78125 9.90625 6.78125 20.515625 
Q 6.78125 27.484375 10.78125 32.3125 
Q 14.796875 37.15625 21.921875 38.8125 
M 18.3125 54.390625 
Q 18.3125 48.734375 21.84375 45.5625 
Q 25.390625 42.390625 31.78125 42.390625 
Q 38.140625 42.390625 41.71875 45.5625 
Q 45.3125 48.734375 45.3125 54.390625 
Q 45.3125 60.0625 41.71875 63.234375 
Q 38.140625 66.40625 31.78125 66.40625 
Q 25.390625 66.40625 21.84375 63.234375 
Q 18.3125 60.0625 18.3125 54.390625 
" id="BitstreamVeraSans-Roman-38"/>
      </defs>
      <g transform="translate(12.96 67.4169791667)scale(0.12 -0.12)">
       <use xlink:href="#BitstreamVeraSans-Roman-38"/>
       <use x="63.623046875" xlink:href="#BitstreamVeraSans-Roman-30"/>
      </g>
     </g>
    </g>
    <g id="ytick_7">
     <g id="line2d_69">
      <g>
       <use style="stroke:#000000;stroke-width:0.5;" x="32.23" xlink:href="#mb01bede1b4" y="18.766875"/>
      </g>
     </g>
     <g id="line2d_70">
      <g>
       <use style="stroke:#000000;stroke-width:0.5;" x="295.88" xlink:href="#m632fd4a13d" y="18.766875"/>
      </g>
     </g>
     <g id="text_11">
      <!-- 90 -->
      <defs>
       <path d="M 10.984375 1.515625 
L 10.984375 10.5 
Q 14.703125 8.734375 18.5 7.8125 
Q 22.3125 6.890625 25.984375 6.890625 
Q 35.75 6.890625 40.890625 13.453125 
Q 46.046875 20.015625 46.78125 33.40625 
Q 43.953125 29.203125 39.59375 26.953125 
Q 35.25 24.703125 29.984375 24.703125 
Q 19.046875 24.703125 12.671875 31.3125 
Q 6.296875 37.9375 6.296875 49.421875 
Q 6.296875 60.640625 12.9375 67.421875 
Q 19.578125 74.21875 30.609375 74.21875 
Q 43.265625 74.21875 49.921875 64.515625 
Q 56.59375 54.828125 56.59375 36.375 
Q 56.59375 19.140625 48.40625 8.859375 
Q 40.234375 -1.421875 26.421875 -1.421875 
Q 22.703125 -1.421875 18.890625 -0.6875 
Q 15.09375 0.046875 10.984375 1.515625 
M 30.609375 32.421875 
Q 37.25 32.421875 41.125 36.953125 
Q 45.015625 41.5 45.015625 49.421875 
Q 45.015625 57.28125 41.125 61.84375 
Q 37.25 66.40625 30.609375 66.40625 
Q 23.96875 66.40625 20.09375 61.84375 
Q 16.21875 57.28125 16.21875 49.421875 
Q 16.21875 41.5 20.09375 36.953125 
Q 23.96875 32.421875 30.609375 32.421875 
" id="BitstreamVeraSans-Roman-39"/>
      </defs>
      <g transform="translate(12.96 22.078125)scale(0.12 -0.12)">
       <use xlink:href="#BitstreamVeraSans-Roman-39"/>
       <use x="63.623046875" xlink:href="#BitstreamVeraSans-Roman-30"/>
      </g>
     </g>
    </g>
   </g>
  </g>
 </g>
 <defs>
  <clipPath id="pc10b12a114">
   <rect height="272.033125" width="263.65" x="32.23" y="18.766875"/>
  </clipPath>
 </defs>
</svg>
